<?xml version="1.0" standalone="no"?>
<!DOCTYPE svg PUBLIC "-//W3C//DTD SVG 20010904//EN"
 "http://www.w3.org/TR/2001/REC-SVG-20010904/DTD/svg10.dtd">
<svg version="1.0" xmlns="http://www.w3.org/2000/svg"
 width="700.000000pt" height="700.000000pt" viewBox="0 0 700.000000 700.000000"
 preserveAspectRatio="xMidYMid meet">
<metadata>
Created by potrace 1.14, written by Peter Selinger 2001-2017
</metadata>
<g transform="translate(0.000000,700.000000) scale(0.100000,-0.100000)"
fill="#000000" stroke="none">
<path d="M3445 6612 c-33 -19 -89 -51 -125 -72 -36 -21 -153 -88 -260 -150
-107 -62 -220 -127 -250 -145 -30 -18 -82 -47 -115 -65 -33 -18 -67 -39 -76
-46 -8 -8 -18 -14 -22 -14 -3 0 -30 -14 -59 -31 -29 -18 -141 -82 -248 -144
-107 -62 -251 -145 -320 -185 -69 -40 -138 -80 -155 -90 -249 -143 -463 -266
-560 -323 -66 -38 -136 -79 -155 -90 -19 -10 -101 -58 -183 -104 l-147 -85 -1
-977 c0 -537 -1 -1245 -2 -1573 l-2 -597 274 -158 c151 -87 302 -173 335 -192
34 -19 115 -65 181 -104 66 -38 143 -82 170 -97 44 -24 325 -185 365 -209 8
-5 152 -88 320 -185 168 -96 480 -276 694 -399 l389 -223 64 35 c36 20 72 41
81 46 10 6 35 21 57 33 22 12 55 32 74 43 30 18 240 139 341 197 19 10 208
120 420 242 212 123 401 232 420 243 19 10 91 52 160 92 111 65 393 228 476
275 283 162 631 364 636 369 4 3 8 711 9 1574 3 1359 1 1569 -11 1581 -12 11
-168 103 -315 186 -39 22 -162 92 -183 105 -10 6 -49 28 -87 49 -39 22 -164
94 -280 161 -115 67 -217 124 -225 128 -8 4 -28 15 -45 26 -33 20 -251 146
-600 346 -126 72 -354 203 -505 290 -151 87 -300 172 -330 188 -30 17 -66 38
-80 47 -57 39 -61 39 -125 2z m-830 -1695 l120 -72 0 -543 0 -542 765 0 765 0
0 542 0 541 52 34 c29 18 54 33 56 33 3 0 35 18 71 40 36 22 69 40 73 40 5 0
57 -29 116 -64 59 -35 114 -67 122 -70 13 -5 15 -181 15 -1355 l0 -1350 -47
-27 c-27 -15 -81 -47 -120 -71 -40 -24 -77 -43 -82 -43 -12 0 -243 138 -250
149 -4 5 -6 250 -6 545 l1 536 -766 -2 -765 -3 0 -537 c0 -599 6 -546 -75
-590 -77 -43 -120 -68 -146 -85 -28 -18 -33 -17 -144 49 -30 18 -74 44 -98 58
l-42 25 3 1349 2 1349 120 68 c66 38 125 69 130 69 6 -1 64 -33 130 -73z"/>
</g>
</svg>
